<?xml version="1.0" standalone="no"?>
<!DOCTYPE svg PUBLIC "-//W3C//DTD SVG 20010904//EN"
 "http://www.w3.org/TR/2001/REC-SVG-20010904/DTD/svg10.dtd">
<svg version="1.0" xmlns="http://www.w3.org/2000/svg"
 width="400.000000pt" height="400.000000pt" viewBox="0 0 400.000000 400.000000"
 preserveAspectRatio="xMidYMid meet">
<metadata>
Created by potrace 1.11, written by Peter Selinger 2001-2013
</metadata>
<g transform="translate(0.000000,400.000000) scale(0.100000,-0.100000)"
fill="#000000" stroke="none">
<path d="M385 3981 c-131 -37 -251 -132 -319 -253 -69 -125 -66 -26 -66 -1728
0 -1702 -3 -1603 66 -1728 45 -81 125 -161 206 -206 124 -69 27 -66 1725 -66
1073 0 1547 3 1585 11 185 38 349 193 399 378 17 62 18 160 18 1601 1 1307 -1
1545 -14 1603 -39 187 -206 353 -393 393 -56 11 -312 14 -1607 13 -1411 -1
-1545 -3 -1600 -18z"/>
</g>
</svg>
